<mxfile host="app.diagrams.net" modified="2022-04-01T02:16:39.530Z" agent="5.0 (Windows NT 10.0; Win64; x64) AppleWebKit/537.36 (KHTML, like Gecko) Chrome/99.0.4844.84 Safari/537.36" etag="EnyTp_-1TeYsngpKEqXf" version="17.3.0" type="github">
  <diagram id="C5RBs43oDa-KdzZeNtuy" name="Page-1">
    <mxGraphModel dx="3807" dy="1533" grid="1" gridSize="9" guides="1" tooltips="1" connect="1" arrows="1" fold="1" page="1" pageScale="1" pageWidth="1200" pageHeight="1920" background="none" math="0" shadow="1">
      <root>
        <mxCell id="WIyWlLk6GJQsqaUBKTNV-0" />
        <mxCell id="WIyWlLk6GJQsqaUBKTNV-1" parent="WIyWlLk6GJQsqaUBKTNV-0" />
        <mxCell id="DXi5md-KKveG2AxMWAel-255" style="edgeStyle=orthogonalEdgeStyle;rounded=0;orthogonalLoop=1;jettySize=auto;html=1;exitX=0.5;exitY=1;exitDx=0;exitDy=0;entryX=0.5;entryY=0;entryDx=0;entryDy=0;" parent="WIyWlLk6GJQsqaUBKTNV-1" source="DXi5md-KKveG2AxMWAel-253" target="DXi5md-KKveG2AxMWAel-254" edge="1">
          <mxGeometry relative="1" as="geometry" />
        </mxCell>
        <mxCell id="DXi5md-KKveG2AxMWAel-253" value="Identificação/Login" style="rounded=1;whiteSpace=wrap;html=1;" parent="WIyWlLk6GJQsqaUBKTNV-1" vertex="1">
          <mxGeometry x="512.01" y="36" width="114" height="72" as="geometry" />
        </mxCell>
        <mxCell id="DXi5md-KKveG2AxMWAel-257" value="Não" style="edgeStyle=orthogonalEdgeStyle;rounded=0;orthogonalLoop=1;jettySize=auto;html=1;exitX=1;exitY=0.5;exitDx=0;exitDy=0;entryX=0;entryY=0.5;entryDx=0;entryDy=0;" parent="WIyWlLk6GJQsqaUBKTNV-1" source="DXi5md-KKveG2AxMWAel-254" target="DXi5md-KKveG2AxMWAel-256" edge="1">
          <mxGeometry relative="1" as="geometry" />
        </mxCell>
        <mxCell id="DXi5md-KKveG2AxMWAel-259" value="Sim" style="edgeStyle=orthogonalEdgeStyle;rounded=0;orthogonalLoop=1;jettySize=auto;html=1;exitX=0.5;exitY=1;exitDx=0;exitDy=0;entryX=0.5;entryY=0;entryDx=0;entryDy=0;" parent="WIyWlLk6GJQsqaUBKTNV-1" source="DXi5md-KKveG2AxMWAel-254" target="DXi5md-KKveG2AxMWAel-262" edge="1">
          <mxGeometry relative="1" as="geometry">
            <mxPoint x="567.01" y="261" as="targetPoint" />
          </mxGeometry>
        </mxCell>
        <mxCell id="DXi5md-KKveG2AxMWAel-254" value="login correto?" style="rhombus;whiteSpace=wrap;html=1;" parent="WIyWlLk6GJQsqaUBKTNV-1" vertex="1">
          <mxGeometry x="512.01" y="136" width="110" height="80" as="geometry" />
        </mxCell>
        <mxCell id="DXi5md-KKveG2AxMWAel-256" value="Acesso negado" style="rounded=1;whiteSpace=wrap;html=1;" parent="WIyWlLk6GJQsqaUBKTNV-1" vertex="1">
          <mxGeometry x="811.5" y="146" width="120" height="60" as="geometry" />
        </mxCell>
        <mxCell id="DXi5md-KKveG2AxMWAel-261" value="Área do comprador" style="rounded=1;whiteSpace=wrap;html=1;" parent="WIyWlLk6GJQsqaUBKTNV-1" vertex="1">
          <mxGeometry x="-36" y="294" width="117" height="60" as="geometry" />
        </mxCell>
        <mxCell id="DXi5md-KKveG2AxMWAel-263" value="COMPRADOR" style="edgeStyle=orthogonalEdgeStyle;rounded=0;orthogonalLoop=1;jettySize=auto;html=1;exitX=0;exitY=0.5;exitDx=0;exitDy=0;entryX=1;entryY=0.5;entryDx=0;entryDy=0;" parent="WIyWlLk6GJQsqaUBKTNV-1" source="DXi5md-KKveG2AxMWAel-262" target="DXi5md-KKveG2AxMWAel-261" edge="1">
          <mxGeometry relative="1" as="geometry" />
        </mxCell>
        <mxCell id="DXi5md-KKveG2AxMWAel-265" value="VENDEDOR" style="edgeStyle=orthogonalEdgeStyle;rounded=0;orthogonalLoop=1;jettySize=auto;html=1;entryX=0;entryY=0.5;entryDx=0;entryDy=0;" parent="WIyWlLk6GJQsqaUBKTNV-1" source="DXi5md-KKveG2AxMWAel-262" target="DXi5md-KKveG2AxMWAel-264" edge="1">
          <mxGeometry relative="1" as="geometry" />
        </mxCell>
        <mxCell id="DXi5md-KKveG2AxMWAel-262" value="Tipo de usuário?" style="rhombus;whiteSpace=wrap;html=1;" parent="WIyWlLk6GJQsqaUBKTNV-1" vertex="1">
          <mxGeometry x="493.97" y="279" width="146" height="90" as="geometry" />
        </mxCell>
        <mxCell id="DXi5md-KKveG2AxMWAel-268" style="edgeStyle=orthogonalEdgeStyle;rounded=0;orthogonalLoop=1;jettySize=auto;html=1;exitX=0.5;exitY=1;exitDx=0;exitDy=0;" parent="WIyWlLk6GJQsqaUBKTNV-1" source="DXi5md-KKveG2AxMWAel-264" target="DXi5md-KKveG2AxMWAel-275" edge="1">
          <mxGeometry relative="1" as="geometry">
            <mxPoint x="873" y="459" as="targetPoint" />
            <Array as="points">
              <mxPoint x="1111" y="396" />
              <mxPoint x="883" y="396" />
            </Array>
          </mxGeometry>
        </mxCell>
        <mxCell id="DXi5md-KKveG2AxMWAel-264" value="Área do vendedor" style="rounded=1;whiteSpace=wrap;html=1;" parent="WIyWlLk6GJQsqaUBKTNV-1" vertex="1">
          <mxGeometry x="1053" y="294" width="117" height="60" as="geometry" />
        </mxCell>
        <mxCell id="DXi5md-KKveG2AxMWAel-271" style="edgeStyle=orthogonalEdgeStyle;rounded=0;orthogonalLoop=1;jettySize=auto;html=1;exitX=0.5;exitY=1;exitDx=0;exitDy=0;" parent="WIyWlLk6GJQsqaUBKTNV-1" edge="1" source="DXi5md-KKveG2AxMWAel-261">
          <mxGeometry relative="1" as="geometry">
            <mxPoint x="-121.50000000000001" y="460.25" as="targetPoint" />
            <mxPoint x="18" y="388" as="sourcePoint" />
            <Array as="points">
              <mxPoint x="22" y="396" />
              <mxPoint x="-122" y="396" />
            </Array>
          </mxGeometry>
        </mxCell>
        <mxCell id="DXi5md-KKveG2AxMWAel-272" style="edgeStyle=orthogonalEdgeStyle;rounded=0;orthogonalLoop=1;jettySize=auto;html=1;" parent="WIyWlLk6GJQsqaUBKTNV-1" edge="1">
          <mxGeometry relative="1" as="geometry">
            <mxPoint x="166.50000000000017" y="468" as="targetPoint" />
            <mxPoint x="22.499999999999943" y="396" as="sourcePoint" />
            <Array as="points">
              <mxPoint x="166.49999999999994" y="441" />
              <mxPoint x="166.49999999999994" y="477" />
            </Array>
          </mxGeometry>
        </mxCell>
        <mxCell id="DXi5md-KKveG2AxMWAel-281" value="" style="edgeStyle=orthogonalEdgeStyle;rounded=0;orthogonalLoop=1;jettySize=auto;html=1;" parent="WIyWlLk6GJQsqaUBKTNV-1" source="DXi5md-KKveG2AxMWAel-275" edge="1">
          <mxGeometry relative="1" as="geometry">
            <mxPoint x="882.98" y="594.75" as="targetPoint" />
          </mxGeometry>
        </mxCell>
        <mxCell id="DXi5md-KKveG2AxMWAel-275" value="Recuperar Produtos" style="rounded=1;whiteSpace=wrap;html=1;" parent="WIyWlLk6GJQsqaUBKTNV-1" vertex="1">
          <mxGeometry x="819.98" y="460.25" width="126" height="63" as="geometry" />
        </mxCell>
        <mxCell id="DXi5md-KKveG2AxMWAel-276" value="" style="endArrow=classic;html=1;rounded=0;" parent="WIyWlLk6GJQsqaUBKTNV-1" edge="1">
          <mxGeometry width="50" height="50" relative="1" as="geometry">
            <mxPoint x="1107" y="396" as="sourcePoint" />
            <mxPoint x="1341" y="468" as="targetPoint" />
            <Array as="points">
              <mxPoint x="1341" y="396" />
            </Array>
          </mxGeometry>
        </mxCell>
        <mxCell id="DXi5md-KKveG2AxMWAel-291" value="" style="edgeStyle=orthogonalEdgeStyle;rounded=0;orthogonalLoop=1;jettySize=auto;html=1;" parent="WIyWlLk6GJQsqaUBKTNV-1" source="DXi5md-KKveG2AxMWAel-277" target="DXi5md-KKveG2AxMWAel-289" edge="1">
          <mxGeometry relative="1" as="geometry" />
        </mxCell>
        <mxCell id="DXi5md-KKveG2AxMWAel-277" value="Inserir Produtos" style="rounded=1;whiteSpace=wrap;html=1;" parent="WIyWlLk6GJQsqaUBKTNV-1" vertex="1">
          <mxGeometry x="1269" y="468" width="129" height="63" as="geometry" />
        </mxCell>
        <mxCell id="DXi5md-KKveG2AxMWAel-284" value="" style="edgeStyle=orthogonalEdgeStyle;rounded=0;orthogonalLoop=1;jettySize=auto;html=1;" parent="WIyWlLk6GJQsqaUBKTNV-1" source="DXi5md-KKveG2AxMWAel-282" target="DXi5md-KKveG2AxMWAel-283" edge="1">
          <mxGeometry relative="1" as="geometry" />
        </mxCell>
        <mxCell id="DXi5md-KKveG2AxMWAel-287" value="Não" style="edgeStyle=orthogonalEdgeStyle;rounded=0;orthogonalLoop=1;jettySize=auto;html=1;" parent="WIyWlLk6GJQsqaUBKTNV-1" source="DXi5md-KKveG2AxMWAel-282" target="DXi5md-KKveG2AxMWAel-286" edge="1">
          <mxGeometry relative="1" as="geometry" />
        </mxCell>
        <mxCell id="DXi5md-KKveG2AxMWAel-282" value="Tipo Lista?" style="rhombus;whiteSpace=wrap;html=1;" parent="WIyWlLk6GJQsqaUBKTNV-1" vertex="1">
          <mxGeometry x="825.01" y="595.25" width="115.94" height="81" as="geometry" />
        </mxCell>
        <mxCell id="DXi5md-KKveG2AxMWAel-285" value="Sim" style="edgeStyle=orthogonalEdgeStyle;rounded=0;orthogonalLoop=1;jettySize=auto;html=1;" parent="WIyWlLk6GJQsqaUBKTNV-1" source="DXi5md-KKveG2AxMWAel-283" target="DXi5md-KKveG2AxMWAel-282" edge="1">
          <mxGeometry relative="1" as="geometry" />
        </mxCell>
        <mxCell id="DXi5md-KKveG2AxMWAel-283" value="Lista de produtos&lt;br&gt;(getAll)" style="rounded=1;whiteSpace=wrap;html=1;" parent="WIyWlLk6GJQsqaUBKTNV-1" vertex="1">
          <mxGeometry x="639.9700000000001" y="605.75" width="120" height="60" as="geometry" />
        </mxCell>
        <mxCell id="DXi5md-KKveG2AxMWAel-286" value="Busca específica&lt;br&gt;(getByID)" style="rounded=1;whiteSpace=wrap;html=1;" parent="WIyWlLk6GJQsqaUBKTNV-1" vertex="1">
          <mxGeometry x="822.98" y="774" width="120" height="60" as="geometry" />
        </mxCell>
        <mxCell id="DXi5md-KKveG2AxMWAel-288" value="Atualizar produto&lt;br&gt;(put)" style="rounded=1;whiteSpace=wrap;html=1;" parent="WIyWlLk6GJQsqaUBKTNV-1" vertex="1">
          <mxGeometry x="1116" y="613.5" width="120" height="60" as="geometry" />
        </mxCell>
        <mxCell id="DXi5md-KKveG2AxMWAel-290" value="Não" style="edgeStyle=orthogonalEdgeStyle;rounded=0;orthogonalLoop=1;jettySize=auto;html=1;" parent="WIyWlLk6GJQsqaUBKTNV-1" source="DXi5md-KKveG2AxMWAel-289" target="DXi5md-KKveG2AxMWAel-288" edge="1">
          <mxGeometry relative="1" as="geometry" />
        </mxCell>
        <mxCell id="DXi5md-KKveG2AxMWAel-293" value="" style="edgeStyle=orthogonalEdgeStyle;rounded=0;orthogonalLoop=1;jettySize=auto;html=1;" parent="WIyWlLk6GJQsqaUBKTNV-1" source="DXi5md-KKveG2AxMWAel-289" target="DXi5md-KKveG2AxMWAel-292" edge="1">
          <mxGeometry relative="1" as="geometry" />
        </mxCell>
        <mxCell id="DXi5md-KKveG2AxMWAel-289" value="Produto novo?" style="rhombus;whiteSpace=wrap;html=1;" parent="WIyWlLk6GJQsqaUBKTNV-1" vertex="1">
          <mxGeometry x="1275.53" y="603" width="115.94" height="81" as="geometry" />
        </mxCell>
        <mxCell id="DXi5md-KKveG2AxMWAel-292" value="Inserir novo produto&lt;br&gt;(post)" style="rounded=1;whiteSpace=wrap;html=1;" parent="WIyWlLk6GJQsqaUBKTNV-1" vertex="1">
          <mxGeometry x="1273.5" y="774.5" width="120" height="60" as="geometry" />
        </mxCell>
        <mxCell id="U8QUfv2BTT90B2AzWARd-3" style="edgeStyle=orthogonalEdgeStyle;rounded=0;orthogonalLoop=1;jettySize=auto;html=1;entryX=0.5;entryY=0;entryDx=0;entryDy=0;startArrow=none;" edge="1" parent="WIyWlLk6GJQsqaUBKTNV-1" target="U8QUfv2BTT90B2AzWARd-2">
          <mxGeometry relative="1" as="geometry">
            <mxPoint x="-121.5" y="646.9999999999998" as="sourcePoint" />
          </mxGeometry>
        </mxCell>
        <mxCell id="U8QUfv2BTT90B2AzWARd-6" style="edgeStyle=orthogonalEdgeStyle;rounded=0;orthogonalLoop=1;jettySize=auto;html=1;entryX=0.5;entryY=0;entryDx=0;entryDy=0;" edge="1" parent="WIyWlLk6GJQsqaUBKTNV-1" source="U8QUfv2BTT90B2AzWARd-0" target="U8QUfv2BTT90B2AzWARd-2">
          <mxGeometry relative="1" as="geometry" />
        </mxCell>
        <mxCell id="U8QUfv2BTT90B2AzWARd-8" value="SELECIONAR ITEM" style="edgeLabel;html=1;align=center;verticalAlign=middle;resizable=0;points=[];" vertex="1" connectable="0" parent="U8QUfv2BTT90B2AzWARd-6">
          <mxGeometry x="-0.2462" y="3" relative="1" as="geometry">
            <mxPoint as="offset" />
          </mxGeometry>
        </mxCell>
        <mxCell id="U8QUfv2BTT90B2AzWARd-0" value="Lista de itens" style="rounded=1;whiteSpace=wrap;html=1;" vertex="1" parent="WIyWlLk6GJQsqaUBKTNV-1">
          <mxGeometry x="-180" y="461.75" width="117" height="60" as="geometry" />
        </mxCell>
        <mxCell id="U8QUfv2BTT90B2AzWARd-1" value="Perfil" style="rounded=1;whiteSpace=wrap;html=1;" vertex="1" parent="WIyWlLk6GJQsqaUBKTNV-1">
          <mxGeometry x="108" y="468" width="117" height="60" as="geometry" />
        </mxCell>
        <mxCell id="U8QUfv2BTT90B2AzWARd-10" value="" style="edgeStyle=orthogonalEdgeStyle;rounded=0;orthogonalLoop=1;jettySize=auto;html=1;" edge="1" parent="WIyWlLk6GJQsqaUBKTNV-1" source="U8QUfv2BTT90B2AzWARd-2">
          <mxGeometry relative="1" as="geometry">
            <mxPoint x="-121.5" y="778" as="targetPoint" />
          </mxGeometry>
        </mxCell>
        <mxCell id="U8QUfv2BTT90B2AzWARd-2" value="Carrinho" style="rounded=1;whiteSpace=wrap;html=1;" vertex="1" parent="WIyWlLk6GJQsqaUBKTNV-1">
          <mxGeometry x="-180" y="648" width="117" height="60" as="geometry" />
        </mxCell>
        <mxCell id="U8QUfv2BTT90B2AzWARd-5" value="" style="edgeStyle=orthogonalEdgeStyle;rounded=0;orthogonalLoop=1;jettySize=auto;html=1;entryX=0.5;entryY=0;entryDx=0;entryDy=0;endArrow=none;" edge="1" parent="WIyWlLk6GJQsqaUBKTNV-1" source="U8QUfv2BTT90B2AzWARd-0">
          <mxGeometry relative="1" as="geometry">
            <mxPoint x="-121.5" y="521.75" as="sourcePoint" />
            <mxPoint x="-121.5" y="567" as="targetPoint" />
          </mxGeometry>
        </mxCell>
        <mxCell id="U8QUfv2BTT90B2AzWARd-13" value="" style="edgeStyle=orthogonalEdgeStyle;rounded=0;orthogonalLoop=1;jettySize=auto;html=1;" edge="1" parent="WIyWlLk6GJQsqaUBKTNV-1" source="U8QUfv2BTT90B2AzWARd-11" target="U8QUfv2BTT90B2AzWARd-12">
          <mxGeometry relative="1" as="geometry" />
        </mxCell>
        <mxCell id="U8QUfv2BTT90B2AzWARd-15" value="SIM" style="edgeLabel;html=1;align=center;verticalAlign=middle;resizable=0;points=[];" vertex="1" connectable="0" parent="U8QUfv2BTT90B2AzWARd-13">
          <mxGeometry x="0.2114" relative="1" as="geometry">
            <mxPoint as="offset" />
          </mxGeometry>
        </mxCell>
        <mxCell id="U8QUfv2BTT90B2AzWARd-14" style="edgeStyle=orthogonalEdgeStyle;rounded=0;orthogonalLoop=1;jettySize=auto;html=1;exitX=0;exitY=0.5;exitDx=0;exitDy=0;entryX=0;entryY=0.5;entryDx=0;entryDy=0;" edge="1" parent="WIyWlLk6GJQsqaUBKTNV-1" source="U8QUfv2BTT90B2AzWARd-11" target="U8QUfv2BTT90B2AzWARd-2">
          <mxGeometry relative="1" as="geometry">
            <Array as="points">
              <mxPoint x="-234" y="823" />
              <mxPoint x="-234" y="678" />
            </Array>
          </mxGeometry>
        </mxCell>
        <mxCell id="U8QUfv2BTT90B2AzWARd-16" value="Text" style="edgeLabel;html=1;align=center;verticalAlign=middle;resizable=0;points=[];" vertex="1" connectable="0" parent="U8QUfv2BTT90B2AzWARd-14">
          <mxGeometry x="-0.2368" y="1" relative="1" as="geometry">
            <mxPoint x="37" y="31" as="offset" />
          </mxGeometry>
        </mxCell>
        <mxCell id="U8QUfv2BTT90B2AzWARd-11" value="Confirmar venda?" style="rhombus;whiteSpace=wrap;html=1;" vertex="1" parent="WIyWlLk6GJQsqaUBKTNV-1">
          <mxGeometry x="-161" y="783" width="80" height="80" as="geometry" />
        </mxCell>
        <mxCell id="U8QUfv2BTT90B2AzWARd-12" value="Venda Finalizada" style="rounded=1;whiteSpace=wrap;html=1;" vertex="1" parent="WIyWlLk6GJQsqaUBKTNV-1">
          <mxGeometry x="-181" y="953" width="120" height="60" as="geometry" />
        </mxCell>
      </root>
    </mxGraphModel>
  </diagram>
</mxfile>
